<?xml version="1.0" standalone="no"?>
<!DOCTYPE svg PUBLIC "-//W3C//DTD SVG 20010904//EN"
 "http://www.w3.org/TR/2001/REC-SVG-20010904/DTD/svg10.dtd">
<svg version="1.0" xmlns="http://www.w3.org/2000/svg"
 width="512.000000pt" height="214.000000pt" viewBox="0 0 512.000000 214.000000"
 preserveAspectRatio="xMidYMid meet">

<g transform="translate(0.000000,214.000000) scale(0.100000,-0.100000)"
fill="#000000" stroke="none">
<path d="M1220 1786 c-559 -320 -555 -318 -570 -345 -6 -13 -10 -151 -10 -388
0 -306 2 -372 15 -389 8 -12 69 -53 137 -91 212 -122 370 -213 441 -255 55
-33 73 -39 99 -34 27 5 140 65 218 115 29 18 134 79 200 115 98 53 216 127
233 147 15 19 17 54 17 398 l0 378 -23 21 c-20 19 -210 133 -362 217 -75 42
-217 125 -238 140 -35 25 -78 17 -157 -29z m4 -248 c14 -22 -12 -50 -81 -87
l-48 -26 -3 -204 c-3 -224 -4 -220 60 -254 l34 -18 133 77 c143 83 166 87 166
29 0 -26 -13 -35 -149 -113 l-149 -85 -45 23 c-25 14 -64 37 -88 52 l-44 28 0
248 c0 284 -8 260 100 321 59 34 96 36 114 9z m321 -18 c40 -22 76 -47 79 -56
3 -9 6 -60 6 -114 0 -76 -3 -99 -14 -103 -13 -5 -62 16 -136 60 -24 14 -30 11
-135 -49 l-110 -63 -5 -75 c-6 -87 -12 -100 -46 -100 -33 0 -38 17 -38 124 -1
99 -6 91 93 147 25 15 82 47 126 73 44 25 86 46 92 46 7 0 27 -9 45 -20 43
-26 50 -25 46 7 -2 21 -14 34 -47 52 -42 23 -44 23 -80 7 -20 -10 -77 -42
-127 -72 -51 -30 -101 -54 -112 -54 -25 0 -42 28 -33 53 7 20 277 177 305 177
10 0 51 -18 91 -40z m4 -316 l81 -45 0 -253 c0 -288 9 -258 -98 -320 -68 -39
-93 -44 -112 -21 -21 26 -6 47 63 88 l67 40 0 208 0 209 -37 23 c-21 13 -43
26 -49 30 -6 3 -35 -9 -65 -28 -60 -39 -104 -45 -114 -16 -3 10 -3 25 0 33 7
17 142 97 166 97 9 1 53 -20 98 -45z m-61 -376 c3 -102 2 -108 -20 -121 -87
-53 -199 -117 -206 -117 -4 0 -18 -9 -32 -20 -14 -11 -32 -20 -41 -20 -22 0
-150 75 -166 97 -17 22 -17 185 -1 201 20 20 51 14 108 -22 l55 -35 45 26 c25
15 52 31 61 36 27 17 69 0 69 -27 0 -20 -15 -33 -76 -70 -84 -50 -116 -56
-154 -26 -33 26 -37 25 -37 -5 0 -26 14 -42 62 -69 l30 -18 113 64 112 63 0
76 c0 82 10 102 50 97 25 -3 25 -4 28 -110z"/>
<path d="M2240 1393 c-39 -14 -50 -36 -50 -96 0 -58 1 -61 45 -100 49 -44 63
-84 46 -130 -14 -37 -42 -32 -55 11 -12 41 -36 43 -36 2 0 -44 41 -83 77 -74
42 10 53 31 53 98 -1 64 -8 81 -51 108 -37 23 -54 71 -43 116 12 48 46 52 54
7 6 -35 33 -41 38 -8 2 14 -6 32 -22 48 -26 26 -31 27 -56 18z"/>
<path d="M2650 1380 c-26 -26 -33 -72 -29 -208 3 -92 8 -124 22 -145 21 -32
55 -35 88 -8 23 19 24 23 24 180 0 136 -3 163 -17 177 -24 24 -66 26 -88 4z
m70 -29 c13 -25 13 -251 0 -285 -11 -29 -44 -35 -54 -10 -12 31 -7 289 6 302
18 18 36 15 48 -7z"/>
<path d="M3691 1387 c-30 -15 -44 -58 -36 -114 5 -35 14 -49 51 -79 44 -37 45
-38 42 -93 -3 -52 -5 -56 -28 -56 -21 0 -26 5 -28 33 -2 23 -8 32 -21 32 -16
0 -17 -5 -11 -38 9 -50 15 -58 44 -66 46 -11 74 8 81 58 10 67 -2 104 -51 152
-39 37 -44 47 -44 86 0 69 42 95 58 36 11 -42 32 -49 32 -11 0 54 -44 83 -89
60z"/>
<path d="M4092 1390 c-12 -5 -27 -21 -32 -35 -11 -29 -14 -254 -4 -303 12 -61
105 -65 121 -5 10 35 10 269 1 304 -6 20 -47 53 -61 48 -1 0 -12 -4 -25 -9z
m47 -34 c8 -9 11 -61 9 -162 l-3 -149 -25 0 c-17 0 -26 7 -31 25 -11 39 -10
246 1 274 10 29 31 34 49 12z"/>
<path d="M4510 1387 c-50 -25 -52 -139 -3 -180 62 -52 64 -56 61 -110 -2 -41
-7 -53 -22 -55 -22 -5 -36 13 -36 46 0 15 -6 22 -19 22 -17 0 -19 -5 -14 -37
7 -47 34 -73 71 -67 40 7 53 25 59 83 5 58 -6 84 -63 133 -30 26 -34 36 -34
78 0 54 20 81 44 60 8 -6 16 -21 18 -32 2 -12 9 -23 16 -26 22 -7 14 55 -10
78 -25 23 -34 24 -68 7z"/>
<path d="M2400 1200 c0 -183 1 -190 20 -190 19 0 20 7 20 89 0 81 2 90 20 96
34 11 40 -3 40 -96 0 -83 1 -89 20 -89 20 0 21 4 18 187 -3 170 -5 188 -20
191 -16 3 -18 -6 -18 -83 l0 -86 -32 3 -32 3 3 62 c3 73 -4 103 -25 103 -12 0
-14 -32 -14 -190z"/>
<path d="M2850 1200 c0 -160 2 -190 15 -190 11 0 15 18 17 82 l3 83 39 6 c21
3 42 12 47 20 6 8 8 47 7 87 -4 86 -17 102 -85 102 l-43 0 0 -190z m90 151 c5
-11 10 -41 10 -66 0 -25 -5 -55 -10 -66 -13 -23 -46 -25 -54 -3 -11 28 -6 130
6 142 18 18 36 15 48 -7z"/>
<path d="M3058 1378 c-2 -7 -4 -92 -3 -188 1 -155 3 -175 18 -178 14 -3 17 9
19 80 l3 83 35 5 c47 7 62 37 57 119 -2 48 -8 67 -22 77 -24 18 -101 19 -107
2z m94 -30 c4 -7 7 -40 6 -72 -3 -62 -19 -85 -52 -73 -13 5 -16 21 -16 80 0
41 3 76 6 80 9 9 47 -1 56 -15z"/>
<path d="M3270 1199 l0 -190 45 3 c52 3 64 20 20 28 -30 5 -30 6 -33 77 -3 70
-2 73 23 79 31 8 33 22 3 26 -21 3 -23 8 -23 73 0 69 0 70 28 73 44 5 31 22
-18 22 l-45 0 0 -191z"/>
<path d="M3440 1200 c0 -162 2 -190 15 -190 12 0 15 16 15 84 0 87 11 113 43
100 20 -7 24 -21 32 -111 5 -56 11 -73 22 -73 13 0 15 12 8 82 -4 46 -11 90
-15 98 -5 9 -5 22 1 31 5 7 9 41 9 75 0 76 -16 94 -83 94 l-47 0 0 -190z m89
156 c18 -21 10 -117 -10 -129 -34 -21 -49 -2 -49 66 0 35 3 67 7 70 11 12 40
8 52 -7z"/>
<path d="M3850 1376 c0 -8 10 -16 23 -18 22 -3 22 -5 25 -175 2 -143 5 -173
17 -173 12 0 15 30 17 173 3 170 3 172 26 175 12 2 22 10 22 18 0 11 -15 14
-65 14 -50 0 -65 -3 -65 -14z"/>
<path d="M4275 1378 c-3 -7 -4 -92 -2 -188 2 -156 4 -175 19 -178 15 -3 18 8
20 80 l3 83 32 3 c43 4 57 31 55 110 -1 81 -17 102 -79 102 -26 0 -45 -5 -48
-12z m83 -17 c18 -11 26 -78 15 -121 -7 -28 -15 -36 -36 -38 l-27 -3 0 79 c0
92 9 108 48 83z"/>
<path d="M2515 890 c4 -6 11 -8 16 -5 14 9 11 15 -7 15 -8 0 -12 -5 -9 -10z"/>
<path d="M3095 890 c3 -5 8 -10 11 -10 2 0 4 5 4 10 0 6 -5 10 -11 10 -5 0 -7
-4 -4 -10z"/>
</g>
</svg>
