<?xml version="1.0" standalone="no"?>
<!DOCTYPE svg PUBLIC "-//W3C//DTD SVG 20010904//EN"
 "http://www.w3.org/TR/2001/REC-SVG-20010904/DTD/svg10.dtd">
<svg version="1.0" xmlns="http://www.w3.org/2000/svg"
 width="207.000000pt" height="227.000000pt" viewBox="0 0 207.000000 227.000000"
 preserveAspectRatio="xMidYMid meet">

<g transform="translate(0.000000,227.000000) scale(0.100000,-0.100000)"
fill="#000000" stroke="none">
<path d="M988 2095 c-44 -16 -624 -348 -723 -414 l-70 -46 -6 -65 c-9 -88 -9
-814 -1 -870 9 -56 38 -79 269 -211 92 -53 251 -145 352 -203 134 -77 193
-106 218 -106 40 0 118 38 311 152 78 46 212 124 298 173 86 50 175 106 198
126 l41 37 3 475 3 475 -35 28 c-71 59 -772 464 -801 463 -11 0 -36 -6 -57
-14z m-97 -335 c44 -24 15 -69 -82 -123 l-56 -31 -7 -206 c-9 -296 -2 -331 75
-370 l41 -21 131 75 c73 42 152 83 176 93 42 16 44 16 57 -2 20 -26 17 -42 -8
-68 -24 -24 -294 -184 -340 -201 -23 -9 -38 -3 -132 54 l-106 64 1 265 c0 299
6 350 40 387 24 26 151 94 176 94 8 0 23 -5 34 -10z m396 -25 c119 -62 123
-67 130 -166 7 -99 -3 -178 -22 -185 -8 -3 -50 13 -95 35 -44 23 -90 41 -102
41 -12 0 -79 -32 -149 -72 l-126 -72 -7 -88 c-7 -107 -16 -128 -56 -128 -25 0
-30 5 -39 38 -13 46 -14 182 -2 215 13 33 343 227 387 227 9 0 34 -10 55 -22
47 -26 65 -16 50 25 -14 36 -101 80 -134 68 -13 -5 -84 -43 -157 -85 -77 -44
-146 -76 -162 -76 -29 0 -54 31 -44 56 11 30 343 224 382 224 12 0 53 -16 91
-35z m28 -409 l100 -53 0 -304 c-1 -209 -4 -312 -12 -331 -13 -28 -129 -103
-191 -122 -31 -9 -36 -8 -53 13 -27 33 -12 54 82 113 l79 51 0 258 0 257 -37
23 c-21 13 -47 29 -59 36 -18 12 -29 8 -97 -27 -41 -22 -87 -40 -101 -40 -27
0 -51 32 -42 55 11 29 173 125 210 125 12 0 66 -24 121 -54z m-85 -343 c7 -7
13 -221 6 -247 -4 -16 -54 -50 -187 -126 l-182 -104 -75 39 c-116 60 -139 83
-147 155 -4 33 -4 87 0 121 11 95 45 98 180 15 l40 -24 75 44 c41 24 80 44 86
44 7 0 22 -8 34 -18 16 -13 21 -24 16 -40 -8 -25 -133 -105 -193 -122 -39 -12
-45 -11 -87 14 l-46 27 0 -29 c0 -35 14 -53 68 -86 l43 -27 139 78 139 78 1
70 c0 77 13 134 32 147 12 7 46 2 58 -9z"/>
</g>
</svg>
